<svg width="30" height="30" viewBox="0 0 30 30" fill="none" xmlns="http://www.w3.org/2000/svg">
<path d="M6.99996 9.41408L3.75696 6.17208L5.17196 4.75708L8.41396 8.00008H23.656C23.8118 8.00007 23.9655 8.03649 24.1048 8.10645C24.2441 8.1764 24.3651 8.27794 24.4582 8.40298C24.5513 8.52801 24.6138 8.67306 24.6409 8.82657C24.6679 8.98007 24.6587 9.13777 24.614 9.28708L22.214 17.2871C22.1522 17.4932 22.0257 17.6738 21.8531 17.8023C21.6805 17.9307 21.4711 18.0001 21.256 18.0001H8.99996V20.0001H20V22.0001H7.99996C7.73474 22.0001 7.48039 21.8947 7.29285 21.7072C7.10531 21.5197 6.99996 21.2653 6.99996 21.0001V9.41408ZM8.99996 10.0001V16.0001H20.512L22.312 10.0001H8.99996ZM8.49996 26.0001C8.10213 26.0001 7.7206 25.842 7.4393 25.5607C7.15799 25.2794 6.99996 24.8979 6.99996 24.5001C6.99996 24.1023 7.15799 23.7207 7.4393 23.4394C7.7206 23.1581 8.10213 23.0001 8.49996 23.0001C8.89778 23.0001 9.27931 23.1581 9.56062 23.4394C9.84192 23.7207 9.99996 24.1023 9.99996 24.5001C9.99996 24.8979 9.84192 25.2794 9.56062 25.5607C9.27931 25.842 8.89778 26.0001 8.49996 26.0001ZM20.5 26.0001C20.1021 26.0001 19.7206 25.842 19.4393 25.5607C19.158 25.2794 19 24.8979 19 24.5001C19 24.1023 19.158 23.7207 19.4393 23.4394C19.7206 23.1581 20.1021 23.0001 20.5 23.0001C20.8978 23.0001 21.2793 23.1581 21.5606 23.4394C21.8419 23.7207 22 24.1023 22 24.5001C22 24.8979 21.8419 25.2794 21.5606 25.5607C21.2793 25.842 20.8978 26.0001 20.5 26.0001Z" fill="white"/>
</svg>
