<svg width="16" height="16" viewBox="0 0 16 16" fill="none" xmlns="http://www.w3.org/2000/svg">
<path fill-rule="evenodd" clip-rule="evenodd" d="M11.5356 4.53556C11.358 4.35805 11.0702 4.35805 10.8927 4.53556L8.00009 7.4282L5.10736 4.53547C4.92985 4.35796 4.64204 4.35796 4.46453 4.53547C4.28702 4.71298 4.28702 5.00078 4.46453 5.17829L7.35727 8.07103L4.46449 10.9638C4.28698 11.1413 4.28698 11.4291 4.46449 11.6066C4.642 11.7841 4.9298 11.7841 5.10731 11.6066L8.00009 8.71385L10.8928 11.6065C11.0703 11.784 11.3581 11.784 11.5356 11.6065C11.7131 11.429 11.7131 11.1412 11.5356 10.9637L8.64291 8.07103L11.5356 5.17838C11.7131 5.00087 11.7131 4.71307 11.5356 4.53556Z" fill="white"/>
</svg>
