<svg width="24" height="24" viewBox="0 0 24 24" fill="none" xmlns="http://www.w3.org/2000/svg">
<g clip-path="url(#clip0)">
<path d="M18 4L24 4L24 6L18 6L18 8L16 8L16 2L18 2L18 4ZM18 19L24 19L24 21L18 21L18 23L16 23L16 17L18 17L18 19ZM6 13L-3.93402e-07 13L-4.80825e-07 11L6 11L6 9L8 9L8 15L6 15L6 13ZM10 13L10 11L24 11L24 13L10 13ZM14 21L-4.37114e-08 21L-1.31134e-07 19L14 19L14 21ZM14 6L-7.43094e-07 6L-8.30516e-07 4L14 4L14 6Z" fill="white"/>
</g>
<defs>
<clipPath id="clip0">
<rect width="24" height="24" fill="white"/>
</clipPath>
</defs>
</svg>
