<svg width="84" height="84" viewBox="0 0 84 84" fill="none" xmlns="http://www.w3.org/2000/svg">
<g opacity="0.7">
<path d="M9 9V63.1667H45.5562C45.7371 63.8168 45.8302 64.4875 45.8333 65.1619V65.3333H43.6667V74H67.5V65.3333H65.318L65.3249 64.4669C65.3296 64.0183 65.427 63.5756 65.6105 63.1667H74V9H9ZM65.3333 71.8333H45.8333V67.5H65.3333V71.8333ZM48 65.3333V65.1619C47.9989 63.5766 47.6123 62.0151 46.8733 60.6123L45.7424 58.4683L42.0179 48.2851C41.9962 48.2264 41.9697 48.1698 41.9385 48.1158C41.7216 47.7371 41.7534 47.2653 42.0189 46.9188C42.2845 46.5723 42.732 46.4189 43.1541 46.53C43.4318 46.603 43.6683 46.7844 43.8105 47.0336L46.1237 51.0421C46.6141 51.8911 47.6139 52.3053 48.5607 52.0514C49.5081 51.7975 50.1667 50.9395 50.1667 49.9588V35C50.1667 34.4017 50.6517 33.9167 51.25 33.9167C51.8483 33.9167 52.3333 34.4017 52.3333 35V44.75C52.3312 45.3149 52.7639 45.7863 53.3267 45.8333L62.3531 46.585C64.0326 46.7336 65.3233 48.1354 65.3333 49.8213V58.6048C65.3355 59.2459 65.1466 59.8733 64.7917 60.4076L64.0712 61.4909C63.4851 62.3695 63.1688 63.4005 63.1624 64.4568L63.1513 65.3333H48ZM71.8333 61H66.9345C67.3048 60.2557 67.4984 59.4358 67.5 58.6048V49.8213C67.4836 47.0108 65.3323 44.6738 62.533 44.4252L54.5 43.7534V35C54.5 33.2052 53.0448 31.75 51.25 31.75C49.4552 31.75 48 33.2052 48 35V49.9588L45.6884 45.9502C44.7854 44.4474 42.8536 43.9312 41.3217 44.7839C39.7898 45.6366 39.2101 47.5498 40.0115 49.1093L43.7328 59.2787C43.7497 59.3242 43.7693 59.3687 43.7926 59.412L44.6289 61H11.1667V19.8333H71.8333V61ZM11.1667 17.6667V11.1667H71.8333V17.6667H11.1667Z" fill="#E0E0E0"/>
<path d="M13.3335 13.3335H15.5002V15.5002H13.3335V13.3335Z" fill="#E0E0E0"/>
<path d="M17.6665 13.3335H19.8332V15.5002H17.6665V13.3335Z" fill="#E0E0E0"/>
<path d="M22 13.3335H24.1667V15.5002H22V13.3335Z" fill="#E0E0E0"/>
<path d="M28.5 28.6342L31.4141 26.1427L30.006 24.4961L28.5 25.782V24.1665H15.5V37.1665H28.5V28.6342ZM17.6667 34.9998V26.3332H26.3333V27.6334L22.0085 31.3372L19.4996 28.8574L17.983 30.3988L21.909 34.2783L26.3333 30.4898V34.9998H17.6667Z" fill="#E0E0E0"/>
<path d="M28.5 41.5H15.5V54.5H28.5V41.5ZM17.6667 52.3333V43.6667H26.3333V52.3333H17.6667Z" fill="#E0E0E0"/>
<path d="M41.5 24.1665H45.8333V26.3332H41.5V24.1665Z" fill="#E0E0E0"/>
<path d="M48 24.1665H67.5V26.3332H48V24.1665Z" fill="#E0E0E0"/>
<path d="M41.5 28.5H67.5V30.6667H41.5V28.5Z" fill="#E0E0E0"/>
<path d="M41.5 33.9165H45.8333V36.0832H41.5V33.9165Z" fill="#E0E0E0"/>
<path d="M56.6665 33.9165H67.4998V36.0832H56.6665V33.9165Z" fill="#E0E0E0"/>
<path d="M56.6665 38.25H67.4998V40.4167H56.6665V38.25Z" fill="#E0E0E0"/>
<path d="M41.5 38.25H45.8333V40.4167H41.5V38.25Z" fill="#E0E0E0"/>
</g>
</svg>
