<svg width="84" height="84" viewBox="0 0 84 84" fill="none" xmlns="http://www.w3.org/2000/svg">
<g opacity="0.7">
<path d="M30.7646 26.2319V12C30.7646 10.8954 31.6601 10 32.7646 10H70.1764C71.281 10 72.1764 10.8954 72.1764 12V72C72.1764 73.1046 71.281 74 70.1764 74H32.7647C31.6601 74 30.7646 73.1046 30.7646 72V58.2319" stroke="#E0E0E0" stroke-width="2.5"/>
<path d="M40.1192 42.8839C40.6073 42.3957 40.6073 41.6043 40.1192 41.1161L32.1642 33.1612C31.6761 32.673 30.8846 32.673 30.3965 33.1612C29.9083 33.6493 29.9083 34.4408 30.3965 34.9289L37.4675 42L30.3965 49.0711C29.9083 49.5592 29.9083 50.3507 30.3965 50.8388C30.8846 51.327 31.6761 51.327 32.1642 50.8388L40.1192 42.8839ZM11 43.25H39.2353V40.75H11V43.25Z" fill="#E0E0E0"/>
</g>
</svg>
