<svg width="84" height="84" viewBox="0 0 84 84" fill="none" xmlns="http://www.w3.org/2000/svg">
<path d="M27.0618 44.0616C27.9101 44.0616 28.5978 43.374 28.5978 42.5257C28.5978 41.6774 27.9101 40.9897 27.0618 40.9897C26.2135 40.9897 25.5259 41.6774 25.5259 42.5257C25.5259 43.374 26.2135 44.0616 27.0618 44.0616Z" fill="#E0E0E0"/>
<path d="M27.0618 51.6456C27.9101 51.6456 28.5978 50.9579 28.5978 50.1097C28.5978 49.2614 27.9101 48.5737 27.0618 48.5737C26.2135 48.5737 25.5259 49.2614 25.5259 50.1097C25.5259 50.9579 26.2135 51.6456 27.0618 51.6456Z" fill="#E0E0E0"/>
<path d="M27.0618 59.2296C27.9101 59.2296 28.5978 58.5419 28.5978 57.6937C28.5978 56.8454 27.9101 56.1577 27.0618 56.1577C26.2135 56.1577 25.5259 56.8454 25.5259 57.6937C25.5259 58.5419 26.2135 59.2296 27.0618 59.2296Z" fill="#E0E0E0"/>
<path d="M64.5977 6H32.7451C31.0844 6 29.5225 6.64418 28.3452 7.81443L16.8555 18.5167C16.8463 18.5253 16.8373 18.534 16.8285 18.5429C15.6494 19.7219 15.0001 21.2895 15.0001 22.9569V44.4857C15.0001 45.0731 15.4763 45.5492 16.0636 45.5492C16.6509 45.5492 17.1271 45.0731 17.1271 44.4857V22.9569C17.1271 22.8444 17.1326 22.7327 17.1416 22.6218H28.0388C30.4492 22.6218 32.4102 20.6609 32.4102 18.2505V8.14141C32.5211 8.13248 32.6327 8.12695 32.7453 8.12695H64.5979C65.7498 8.12695 66.6869 9.06422 66.6869 10.2162V73.7838C66.6869 74.9358 65.7498 75.8731 64.5979 75.8731H19.2162C18.0641 75.8731 17.1269 74.9358 17.1269 73.7838V43.6095C17.1269 43.0222 16.6508 42.5461 16.0635 42.5461C15.4762 42.5461 15 43.0222 15 43.6095V73.7838C15 76.1086 16.8913 78 19.2162 78H64.5977C66.9225 78 68.8137 76.1086 68.8137 73.7838V10.2162C68.8139 7.89128 66.9225 6 64.5977 6ZM30.2831 18.2505C30.2831 19.4881 29.2762 20.4949 28.0386 20.4949H17.9445C18.0587 20.3427 18.1835 20.1969 18.3197 20.0595L29.8081 9.35845C29.8173 9.3498 29.8264 9.34115 29.8352 9.33222C29.9764 9.19099 30.1263 9.06167 30.2832 8.94398L30.2831 18.2505Z" fill="#E0E0E0"/>
<path d="M58.2883 41.4624H33.6167C33.0294 41.4624 32.5532 41.9386 32.5532 42.5259C32.5532 43.1132 33.0294 43.5893 33.6167 43.5893H58.2883C58.8756 43.5893 59.3518 43.1132 59.3518 42.5259C59.3518 41.9386 58.8756 41.4624 58.2883 41.4624Z" fill="#E0E0E0"/>
<path d="M58.2883 49.0464H33.6167C33.0294 49.0464 32.5532 49.5225 32.5532 50.1099C32.5532 50.6972 33.0294 51.1733 33.6167 51.1733H58.2883C58.8756 51.1733 59.3518 50.6972 59.3518 50.1099C59.3518 49.5225 58.8756 49.0464 58.2883 49.0464Z" fill="#E0E0E0"/>
<path d="M58.2883 56.6299H33.6167C33.0294 56.6299 32.5532 57.106 32.5532 57.6933C32.5532 58.2807 33.0294 58.7568 33.6167 58.7568H58.2883C58.8756 58.7568 59.3518 58.2807 59.3518 57.6933C59.3518 57.106 58.8756 56.6299 58.2883 56.6299Z" fill="#E0E0E0"/>
<path d="M38.7338 30.9126H26.1455C25.5582 30.9126 25.082 31.3888 25.082 31.9761C25.082 32.5634 25.5582 33.0395 26.1455 33.0395H38.7338C39.3211 33.0395 39.7972 32.5634 39.7972 31.9761C39.7972 31.3888 39.3211 30.9126 38.7338 30.9126Z" fill="#E0E0E0"/>
</svg>
