<svg width="24" height="24" viewBox="0 0 24 24" fill="none" xmlns="http://www.w3.org/2000/svg">
<path d="M17 13.5C17 15.2574 17 18.5 17 18.5H5V6.5H10" stroke="#3772FF" stroke-width="1.25"/>
<path d="M19.625 5C19.625 4.65482 19.3452 4.375 19 4.375L13.375 4.375C13.0298 4.375 12.75 4.65482 12.75 5C12.75 5.34518 13.0298 5.625 13.375 5.625H18.375V10.625C18.375 10.9702 18.6548 11.25 19 11.25C19.3452 11.25 19.625 10.9702 19.625 10.625L19.625 5ZM10.4419 14.4419L19.4419 5.44194L18.5581 4.55806L9.55806 13.5581L10.4419 14.4419Z" fill="#3772FF"/>
</svg>
