<svg width="28" height="28" viewBox="0 0 28 28" fill="none" xmlns="http://www.w3.org/2000/svg">
<path d="M27.5 20.63V25.934C27.5002 26.3138 27.3563 26.6795 27.0974 26.9573C26.8385 27.2351 26.4838 27.4044 26.105 27.431C25.4495 27.476 24.914 27.5 24.5 27.5C11.2445 27.5 0.5 16.7555 0.5 3.5C0.5 3.086 0.5225 2.5505 0.569 1.895C0.595584 1.51617 0.764872 1.16152 1.04271 0.902613C1.32054 0.64371 1.68623 0.499828 2.066 0.5H7.37C7.55606 0.499812 7.73554 0.568789 7.87359 0.693531C8.01164 0.818273 8.09839 0.989874 8.117 1.175C8.1515 1.52 8.183 1.7945 8.213 2.003C8.5111 4.08338 9.122 6.10675 10.025 8.0045C10.1675 8.3045 10.0745 8.663 9.8045 8.855L6.5675 11.168C8.54668 15.7797 12.2218 19.4548 16.8335 21.434L19.1435 18.203C19.2379 18.071 19.3757 17.9763 19.5327 17.9355C19.6898 17.8946 19.8562 17.9102 20.003 17.9795C21.9005 18.8808 23.9234 19.4902 26.003 19.787C26.2115 19.817 26.486 19.85 26.828 19.883C27.0129 19.902 27.1841 19.9889 27.3085 20.1269C27.433 20.2649 27.5017 20.4442 27.5015 20.63H27.5Z" fill="white"/>
</svg>
