<svg width="24" height="25" viewBox="0 0 24 25" fill="none" xmlns="http://www.w3.org/2000/svg">
<path d="M11 2.96863C15.968 2.96863 20 7.00063 20 11.9686C20 16.9366 15.968 20.9686 11 20.9686C6.032 20.9686 2 16.9366 2 11.9686C2 7.00063 6.032 2.96863 11 2.96863ZM11 18.9686C14.867 18.9686 18 15.8356 18 11.9686C18 8.10063 14.867 4.96863 11 4.96863C7.132 4.96863 4 8.10063 4 11.9686C4 15.8356 7.132 18.9686 11 18.9686ZM19.485 19.0396L22.314 21.8676L20.899 23.2826L18.071 20.4536L19.485 19.0396Z" fill="#BDBDBD"/>
</svg>
