<svg width="48" height="48" viewBox="0 0 48 48" fill="none" xmlns="http://www.w3.org/2000/svg">
<path d="M4.26593 47.3906C3.49119 47.3897 2.74843 47.0816 2.20061 46.5338C1.65279 45.9859 1.34463 45.2432 1.34375 44.4684V21.7002C1.3454 21.1413 1.50665 20.5944 1.80852 20.124C2.11039 19.6536 2.54034 19.2792 3.04777 19.0448L3.07501 19.0323V18.4154C3.07567 17.8278 3.30938 17.2644 3.72488 16.8489C4.14038 16.4334 4.70372 16.1997 5.29132 16.1991H7.04492L8.05342 5.98805C8.10333 5.46486 8.34683 4.97916 8.7362 4.62615C9.12557 4.27314 9.63274 4.07827 10.1583 4.07973C10.2278 4.07973 10.2983 4.08321 10.3679 4.09007L22.6598 5.2885C22.6825 5.29102 22.7049 5.2945 22.7265 5.2988L22.757 5.30489L25.326 1.53479C25.482 1.30456 25.6821 1.10755 25.9147 0.955186C26.1474 0.802819 26.4079 0.698116 26.6813 0.64714C26.8126 0.62212 26.9459 0.609476 27.0796 0.609375C27.5033 0.609618 27.9171 0.737993 28.2666 0.977646L41.8649 10.2446C42.3282 10.561 42.6471 11.0483 42.7516 11.5996C42.8561 12.1509 42.7375 12.7211 42.422 13.1851L40.368 16.1991H40.9812C41.5688 16.1997 42.1322 16.4334 42.5477 16.8489C42.9632 17.2644 43.1969 17.8278 43.1975 18.4154V19.3002L43.2173 19.3142C43.5991 19.5843 43.9107 19.9418 44.1261 20.3569C44.3415 20.772 44.4544 21.2326 44.4555 21.7002V28.0652H45.2036C45.5893 28.0656 45.959 28.219 46.2317 28.4917C46.5044 28.7644 46.6578 29.1341 46.6582 29.5198V36.649C46.6578 37.0346 46.5044 37.4043 46.2317 37.677C45.959 37.9497 45.5893 38.1031 45.2036 38.1036H44.4555V44.4684C44.4546 45.2432 44.1464 45.9859 43.5986 46.5338C43.0508 47.0816 42.308 47.3897 41.5333 47.3906H4.26593ZM2.58575 44.4684C2.58625 44.9139 2.76343 45.341 3.07842 45.656C3.3934 45.9709 3.82047 46.1481 4.26593 46.1486H41.5333C41.9788 46.1481 42.4058 45.9709 42.7208 45.656C43.0358 45.341 43.213 44.9139 43.2135 44.4685V42.5685H2.58575V44.4684ZM2.58575 41.3265H43.2135V38.1036H36.8156C36.0301 38.103 35.2558 37.9183 34.5547 37.5642C33.8536 37.2101 33.2454 36.6964 32.7788 36.0646C32.3123 35.4327 32.0005 34.7002 31.8684 33.926C31.7363 33.1517 31.7877 32.3573 32.0184 31.6065L32.0239 31.6009L32.0245 31.588C32.0929 31.3714 32.176 31.1596 32.2731 30.9543L32.2928 30.909C32.2963 30.9034 32.2993 30.8976 32.302 30.8916C32.7092 30.0573 33.3386 29.3515 34.1208 28.8515C34.9255 28.3373 35.8606 28.0644 36.8156 28.0652H43.2135V24.8421H2.58575V41.3265ZM36.8156 29.3072C36.1353 29.3076 35.4678 29.4916 34.8833 29.8398C34.2989 30.188 33.8193 30.6874 33.495 31.2854C33.4662 31.3393 33.4385 31.3938 33.4117 31.4482C33.3568 31.5629 33.3087 31.6768 33.2687 31.7871C32.9622 32.6249 32.9622 33.5441 33.2688 34.3819C33.3105 34.497 33.3581 34.61 33.4116 34.7202C33.4384 34.7757 33.4662 34.8294 33.4948 34.883C33.8191 35.4811 34.2987 35.9806 34.8832 36.3288C35.4676 36.6771 36.1353 36.8611 36.8156 36.8616H45.2036C45.26 36.8615 45.314 36.8391 45.3539 36.7992C45.3938 36.7594 45.4162 36.7053 45.4162 36.649V29.5198C45.4162 29.4634 45.3938 29.4094 45.3539 29.3695C45.314 29.3297 45.26 29.3072 45.2036 29.3072H36.8156ZM4.26593 20.0201C3.82048 20.0206 3.39342 20.1978 3.07843 20.5128C2.76345 20.8277 2.58626 21.2548 2.58575 21.7002V23.6001H43.2135V21.7002C43.213 21.2548 43.0358 20.8277 42.7208 20.5128C42.4058 20.1978 41.9787 20.0206 41.5333 20.0201L4.26593 20.0201ZM38.6111 18.7781H41.5333C41.6565 18.7784 41.7796 18.7865 41.9018 18.8025L41.9546 18.8091V18.4154C41.9546 18.1575 41.8522 17.9102 41.67 17.7278C41.4879 17.5453 41.2408 17.4425 40.9829 17.442H39.5218L38.6111 18.7781ZM29.1659 5.16385C29.4734 5.1642 29.7736 5.25755 30.0271 5.43164L37.0757 10.2354C37.3095 10.393 37.4946 10.6126 37.6104 10.8696C37.7262 11.1266 37.7681 11.4108 37.7313 11.6902C37.6278 12.4963 37.7868 13.3142 38.1847 14.0228C38.3249 14.2702 38.3927 14.5521 38.3803 14.8363C38.3679 15.1204 38.2758 15.3953 38.1144 15.6296L35.9689 18.7781H37.1077L41.3962 12.4863C41.5265 12.2945 41.5754 12.0589 41.5322 11.8311C41.4891 11.6034 41.3574 11.402 41.166 11.2712L27.5677 2.00432C27.4234 1.90493 27.2524 1.85165 27.0772 1.85152C27.0216 1.85174 26.9662 1.85724 26.9117 1.86795C26.7989 1.88903 26.6914 1.93229 26.5954 1.99522C26.4995 2.05816 26.417 2.13951 26.3527 2.23457L15.0784 18.7781H16.2172L24.6266 6.43831C24.7669 6.23261 24.9553 6.0643 25.1755 5.948C25.3957 5.8317 25.6409 5.77093 25.89 5.77098C25.9591 5.77099 26.0281 5.77581 26.0965 5.7854C26.2667 5.80898 26.4383 5.82081 26.6101 5.82079C27.2476 5.82112 27.8749 5.66035 28.4337 5.35341C28.6579 5.22951 28.9098 5.1643 29.1659 5.16385ZM26.6853 13.6502C28.0671 13.6537 29.3964 14.1798 30.4063 15.1229C31.4162 16.0659 32.0319 17.3561 32.1299 18.7344L32.1329 18.7781H34.4655L37.0878 14.9307C37.1174 14.8873 37.1344 14.8365 37.1371 14.784C37.1397 14.7315 37.1278 14.6793 37.1026 14.6331C36.5734 13.6902 36.3622 12.6018 36.5004 11.5294C36.5061 11.4778 36.4976 11.4257 36.4759 11.3786C36.4542 11.3315 36.42 11.2913 36.377 11.2622L29.3274 6.45831C29.2791 6.42528 29.222 6.40759 29.1635 6.40755C29.1181 6.40736 29.0735 6.4187 29.0338 6.44051C28.2906 6.8491 27.4562 7.06319 26.608 7.06288C26.3791 7.0629 26.1504 7.04706 25.9237 7.0155C25.9116 7.01333 25.8993 7.01226 25.887 7.0123C25.845 7.01266 25.8037 7.02229 25.7659 7.04049C25.7281 7.05869 25.6948 7.08502 25.6684 7.11758H25.6672L25.6523 7.13805L17.7206 18.7781H21.2378L21.2408 18.7344C21.3387 17.3561 21.9544 16.0659 22.9643 15.1229C23.9743 14.1798 25.3036 13.6537 26.6853 13.6502ZM26.6853 14.8922C25.6351 14.8988 24.6245 15.2945 23.849 16.0027C23.0736 16.711 22.5882 17.6817 22.4867 18.727L22.4821 18.7781H30.8885L30.8839 18.727C30.7825 17.6817 30.2971 16.711 29.5216 16.0027C28.7461 15.2944 27.7356 14.8988 26.6853 14.8922ZM13.8954 8.39072C13.8485 8.39052 13.8023 8.40207 13.761 8.42434C13.7197 8.4466 13.6846 8.47886 13.659 8.51816C13.0763 9.42934 12.2157 10.1287 11.2046 10.5126C11.1557 10.5316 11.1131 10.5638 11.0814 10.6056C11.0497 10.6475 11.0303 10.6973 11.0253 10.7495L10.232 18.7781H13.5751L20.2438 8.993L13.9246 8.39223C13.9149 8.39122 13.9052 8.39071 13.8954 8.39072ZM10.1574 5.32169C9.94047 5.32137 9.7312 5.4021 9.57064 5.54804C9.41008 5.69398 9.30981 5.89462 9.28947 6.11064L8.03836 18.7781H8.98401L9.78926 10.6279C9.81583 10.3447 9.92153 10.0746 10.0943 9.84861C10.2671 9.62258 10.4999 9.44971 10.7663 9.34974C11.5262 9.06187 12.1729 8.53642 12.6102 7.85152C12.7474 7.63534 12.9372 7.45749 13.1618 7.3346C13.3864 7.2117 13.6385 7.14778 13.8946 7.14881C13.945 7.14881 13.9961 7.15128 14.0466 7.15617L21.0422 7.82076L21.9639 6.46907L10.2452 5.32612C10.216 5.32317 10.1867 5.32169 10.1574 5.32169ZM5.29132 17.4411C5.03301 17.4414 4.78536 17.5441 4.60271 17.7268C4.42005 17.9094 4.31731 18.1571 4.31702 18.4154V18.7781H6.79041L6.92233 17.4411H5.29132Z" fill="white"/>
<path d="M36.9754 35.7479C36.4488 35.7479 35.9339 35.5917 35.496 35.2991C35.058 35.0064 34.7167 34.5905 34.5152 34.1039C34.3136 33.6173 34.2609 33.0819 34.3637 32.5653C34.4664 32.0487 34.7201 31.5742 35.0925 31.2018C35.465 30.8294 35.9395 30.5758 36.4561 30.473C36.9726 30.3703 37.5081 30.423 37.9947 30.6246C38.4813 30.8262 38.8972 31.1675 39.1898 31.6055C39.4824 32.0434 39.6385 32.5583 39.6385 33.085C39.6377 33.791 39.3569 34.4679 38.8576 34.9671C38.3584 35.4663 37.6815 35.7471 36.9754 35.7479ZM36.9754 31.664C36.6944 31.664 36.4197 31.7473 36.1861 31.9035C35.9524 32.0596 35.7703 32.2815 35.6627 32.5412C35.5552 32.8008 35.5271 33.0865 35.5819 33.3621C35.6367 33.6377 35.7721 33.8909 35.9708 34.0896C36.1695 34.2883 36.4227 34.4237 36.6983 34.4785C36.9739 34.5333 37.2596 34.5052 37.5192 34.3977C37.7789 34.2901 38.0008 34.108 38.1569 33.8744C38.3131 33.6407 38.3964 33.366 38.3964 33.085C38.396 32.7082 38.2462 32.347 37.9798 32.0806C37.7134 31.8142 37.3522 31.6644 36.9754 31.664Z" fill="white"/>
</svg>
