<svg width="48" height="48" viewBox="0 0 48 48" fill="none" xmlns="http://www.w3.org/2000/svg">
<path d="M42.7372 45.2407C42.5096 45.2412 42.2842 45.1967 42.074 45.1098C41.8637 45.0228 41.6728 44.895 41.5121 44.7339L31.6413 34.8621C31.3675 34.589 31.1933 34.2318 31.1465 33.8479C31.0996 33.4641 31.1829 33.0755 31.3829 32.7445L31.4019 32.7131L21.2028 22.5141L17.619 26.0979L17.9306 26.4085C18.2646 26.7434 18.4522 27.1971 18.4522 27.67C18.4522 28.1429 18.2646 28.5966 17.9306 28.9315L16.634 30.2281C16.2994 30.5627 15.8456 30.7506 15.3725 30.7506C14.8993 30.7506 14.4456 30.5627 14.111 30.2281L4.16312 20.2794C3.99747 20.1138 3.86607 19.9172 3.77642 19.7008C3.68677 19.4844 3.64063 19.2525 3.64062 19.0183C3.64062 18.784 3.68677 18.5521 3.77642 18.3357C3.86607 18.1194 3.99747 17.9228 4.16312 17.7572L5.45969 16.4607C5.79444 16.1268 6.24795 15.9393 6.72076 15.9393C7.19356 15.9393 7.64707 16.1268 7.98183 16.4607L8.29343 16.7722L19.4822 5.58249L19.1706 5.27093C19.005 5.10535 18.8736 4.90875 18.7839 4.69236C18.6943 4.47598 18.6481 4.24405 18.6481 4.00983C18.6481 3.77561 18.6943 3.54369 18.7839 3.32731C18.8736 3.11093 19.005 2.91433 19.1707 2.74875L20.4682 1.45218C20.6337 1.28653 20.8303 1.15513 21.0467 1.06548C21.2631 0.975831 21.495 0.929687 21.7292 0.929688C21.9634 0.929687 22.1954 0.975831 22.4117 1.06548C22.6281 1.15513 22.8247 1.28653 22.9903 1.45218L32.939 11.4009C33.273 11.7356 33.4606 12.1892 33.4606 12.662C33.4606 13.1349 33.273 13.5884 32.939 13.9231L31.6425 15.2197C31.3079 15.5542 30.8541 15.7422 30.3809 15.7422C29.9078 15.7422 29.454 15.5542 29.1194 15.2197L28.8078 14.9081L25.2241 18.4928L35.4208 28.7084L35.4593 28.6701C35.7901 28.471 36.178 28.3886 36.5611 28.4357C36.9443 28.4829 37.3005 28.6571 37.5731 28.9304L47.444 38.8022C47.6049 38.9631 47.7326 39.154 47.8197 39.3642C47.9067 39.5744 47.9516 39.7997 47.9516 40.0272C47.9516 40.2547 47.9067 40.48 47.8197 40.6902C47.7326 40.9003 47.6049 41.0913 47.444 41.2522L43.9621 44.734C43.8016 44.8953 43.6107 45.0231 43.4004 45.11C43.1901 45.197 42.9647 45.2414 42.7372 45.2407ZM36.3481 29.785C36.2994 29.7848 36.2512 29.7943 36.2062 29.8129C36.1612 29.8316 36.1203 29.859 36.086 29.8936L32.6043 33.3753C32.5349 33.4448 32.4959 33.539 32.4959 33.6372C32.4959 33.7354 32.5349 33.8296 32.6043 33.8991L42.4753 43.771C42.5448 43.8404 42.639 43.8794 42.7373 43.8794C42.8356 43.8793 42.9298 43.8403 42.9992 43.7708L46.4809 40.2891C46.5504 40.2194 46.5893 40.1251 46.5893 40.0267C46.5893 39.9284 46.5504 39.834 46.4809 39.7643L36.61 29.8934C36.5757 29.859 36.5348 29.8316 36.4899 29.813C36.4449 29.7944 36.3968 29.7849 36.3481 29.785ZM22.1659 21.5509L32.3338 31.7188L34.4203 29.6331L24.2609 19.4549L22.1659 21.5509ZM6.72032 17.3003C6.665 17.3003 6.61022 17.3112 6.55912 17.3325C6.50802 17.3537 6.46161 17.3847 6.42255 17.4239L5.12621 18.7203C5.08689 18.7593 5.05566 18.8057 5.03433 18.8568C5.01299 18.9079 5.00196 18.9627 5.00188 19.0181C5.00179 19.0735 5.01265 19.1284 5.03383 19.1795C5.05501 19.2307 5.08609 19.2772 5.12529 19.3163L15.0741 29.265C15.1543 29.3419 15.2613 29.3849 15.3725 29.3849C15.4837 29.3849 15.5906 29.3419 15.6709 29.265L16.9675 27.9685C17.0465 27.8893 17.0909 27.7819 17.0909 27.67C17.0909 27.5581 17.0465 27.4508 16.9675 27.3716L7.01878 17.4237C6.97966 17.3845 6.93314 17.3533 6.88191 17.3321C6.83068 17.311 6.77576 17.3001 6.72032 17.3003ZM9.25652 17.7344L16.6559 25.1348L20.7213 21.0694L23.7657 18.024L23.7803 18.0103L27.8447 13.9459L20.4453 6.54562L9.25652 17.7344ZM21.7287 2.2919C21.6733 2.29172 21.6184 2.30254 21.5672 2.32372C21.5159 2.34491 21.4694 2.37604 21.4303 2.41531L20.1337 3.71188C20.0547 3.79106 20.0103 3.89832 20.0103 4.01016C20.0103 4.122 20.0546 4.2293 20.1335 4.30853L30.0825 14.2566C30.1628 14.3335 30.2697 14.3765 30.3809 14.3765C30.4921 14.3765 30.599 14.3336 30.6793 14.2567L31.975 12.96C32.0143 12.921 32.0456 12.8746 32.0669 12.8235C32.0883 12.7724 32.0993 12.7176 32.0994 12.6622C32.0995 12.6069 32.0886 12.552 32.0674 12.5008C32.0463 12.4497 32.0152 12.4032 31.976 12.3641L22.0272 2.41531C21.9881 2.37604 21.9416 2.34492 21.8903 2.32373C21.8391 2.30255 21.7842 2.29173 21.7287 2.2919Z" fill="white"/>
<path d="M1.21783 47.0703C0.907386 47.0699 0.609755 46.9464 0.390235 46.7269C0.170715 46.5074 0.0472316 46.2098 0.046875 45.8993V43.8275C0.0477908 43.0018 0.3762 42.2102 0.960053 41.6263C1.54391 41.0424 2.33552 40.714 3.16122 40.713H4.32376V36.8309C4.32407 36.4321 4.48257 36.0497 4.76448 35.7676C5.04639 35.4855 5.42869 35.3268 5.82751 35.3262H24.9741C25.373 35.3266 25.7555 35.4853 26.0376 35.7674C26.3196 36.0495 26.4783 36.432 26.4787 36.8309V40.713H27.6403C28.466 40.714 29.2576 41.0424 29.8415 41.6263C30.4253 42.2102 30.7537 43.0018 30.7547 43.8275V45.8993C30.7543 46.2098 30.6308 46.5074 30.4113 46.7269C30.1918 46.9464 29.8942 47.0699 29.5838 47.0703H1.21783ZM3.16122 42.0743C2.69656 42.075 2.25112 42.26 1.92265 42.5886C1.59417 42.9173 1.40948 43.3628 1.40909 43.8275V45.7081H29.3935V43.8275C29.3929 43.3627 29.2081 42.9171 28.8794 42.5884C28.5507 42.2597 28.1051 42.0749 27.6403 42.0743L3.16122 42.0743ZM5.82752 36.6884C5.78973 36.6884 5.7535 36.7035 5.72679 36.7302C5.70007 36.7569 5.68505 36.7931 5.68501 36.8309V40.713H25.1166V36.8309C25.1166 36.7931 25.1015 36.7569 25.0748 36.7302C25.0481 36.7035 25.0119 36.6884 24.9741 36.6884L5.82752 36.6884Z" fill="white"/>
</svg>
