<svg width="48" height="48" viewBox="0 0 48 48" fill="none" xmlns="http://www.w3.org/2000/svg">
<path d="M21.8832 47.7671C17.6665 47.7664 13.5446 46.5155 10.0387 44.1726C6.53273 41.8296 3.8001 38.4999 2.1862 34.6042C0.572306 30.7086 0.149605 26.4219 0.971532 22.286C1.79346 18.1501 3.82311 14.3508 6.80393 11.3682C8.77997 9.38271 11.1302 7.80881 13.7185 6.73763C16.3069 5.66644 19.082 5.11924 21.8832 5.12769C22.0626 5.12789 22.2345 5.19922 22.3614 5.32604C22.4882 5.45286 22.5595 5.62481 22.5597 5.80416V11.9436L23.2545 12.009C24.3147 12.1089 25.3606 12.3259 26.373 12.6561L27.3777 12.9841V0.908892C27.3779 0.729532 27.4493 0.557581 27.5761 0.430763C27.703 0.303945 27.8749 0.232616 28.0543 0.232424C30.6196 0.231243 33.1597 0.739528 35.527 1.72779C37.8943 2.71605 40.0418 4.1646 41.8449 5.9894C43.648 7.8142 45.0707 9.9789 46.0305 12.3579C46.9904 14.7369 47.4682 17.2829 47.4363 19.848C47.4338 20.0259 47.3614 20.1957 47.2349 20.3209C47.1084 20.446 46.9378 20.5164 46.7598 20.517H35.1621L35.5323 21.5437C35.9041 22.5767 36.1567 23.6487 36.285 24.739L36.3649 25.4159H46.6116C46.7011 25.416 46.7897 25.4338 46.8722 25.4683C46.9548 25.5028 47.0297 25.5533 47.0926 25.617C47.1555 25.6806 47.2052 25.7561 47.2387 25.8391C47.2723 25.922 47.289 26.0108 47.288 26.1003C47.2642 28.7222 46.6398 31.3037 45.4627 33.6466C44.2856 35.9895 42.5873 38.0314 40.498 39.6156C40.356 39.7242 40.1769 39.7721 39.9997 39.7489C39.8226 39.7258 39.6618 39.6334 39.5525 39.4921L34.7293 33.2608L34.1444 34.1843C33.4595 35.2651 32.6357 36.2514 31.6941 37.1179L31.1761 37.5946L34.9343 42.45C34.9888 42.5205 35.0289 42.6012 35.0522 42.6873C35.0755 42.7734 35.0816 42.8632 35.07 42.9517C35.0585 43.0401 35.0295 43.1254 34.9849 43.2027C34.9403 43.2799 34.8808 43.3475 34.81 43.4017C31.1026 46.2467 26.5564 47.7819 21.8832 47.7671ZM20.3829 6.53641C10.0274 7.30923 1.91554 16.0552 1.91554 26.4474C1.91554 37.4571 10.873 46.4142 21.8832 46.4142C25.7426 46.422 29.5206 45.3044 32.7547 43.1984L33.451 42.7443L30.0981 38.4123L29.5106 38.7772C27.2206 40.1994 24.5782 40.9523 21.8825 40.9509C13.8852 40.9509 7.37895 34.4446 7.37895 26.4473C7.38363 22.8394 8.73101 19.3623 11.1587 16.6933C13.5864 14.0243 16.9205 12.3544 20.5119 12.0088L21.2067 11.9434V6.47487L20.3829 6.53641ZM21.8825 13.2966C14.6312 13.2966 8.73188 19.196 8.73188 26.4473C8.73188 33.6986 14.6312 39.5979 21.8825 39.5979C29.1337 39.5979 35.0331 33.6986 35.0331 26.4473C35.0331 19.196 29.1337 13.2966 21.8825 13.2966V13.2966ZM36.349 27.4815C36.2535 28.8387 35.9663 30.1755 35.4959 31.4522L35.3489 31.8508L40.2158 38.1386L40.8302 37.572C43.6531 34.9713 45.4351 31.4336 45.8446 27.6172L45.9356 26.7689H36.3993L36.349 27.4815ZM28.7308 13.6573L29.1139 13.8786C31.187 15.0793 32.9341 16.77 34.2021 18.8026L34.4271 19.1639H46.097L46.04 18.344C45.4277 9.54645 38.3429 2.36824 29.5602 1.64694L28.7308 1.57881L28.7308 13.6573Z" fill="white"/>
<path d="M21.8806 35.3913C21.7012 35.3911 21.5293 35.3198 21.4024 35.193C21.2756 35.0661 21.2043 34.8942 21.2041 34.7148V32.6909H20.4374C19.5367 32.6909 18.7509 32.562 17.8439 31.9326C17.7708 31.882 17.7084 31.8175 17.6602 31.7428C17.612 31.6681 17.5791 31.5846 17.5632 31.4971C17.5473 31.4096 17.5489 31.3199 17.5677 31.233C17.5865 31.1461 17.6223 31.0638 17.673 30.9908C17.7237 30.9177 17.7883 30.8554 17.863 30.8073C17.9378 30.7593 18.0213 30.7264 18.1088 30.7106C18.1963 30.6949 18.2861 30.6965 18.3729 30.7154C18.4598 30.7344 18.5421 30.7702 18.615 30.821C19.0687 31.1427 19.6076 31.3226 20.1636 31.3379L23.4099 31.338C23.6875 31.3406 23.9628 31.2885 24.2201 31.1845C24.4774 31.0804 24.7116 30.9266 24.9093 30.7318C25.107 30.537 25.2642 30.305 25.372 30.0492C25.4798 29.7935 25.536 29.5189 25.5373 29.2414C25.5387 28.9638 25.4852 28.6888 25.3799 28.4319C25.2747 28.1751 25.1197 27.9417 24.9239 27.7449C24.7281 27.5482 24.4954 27.3921 24.2392 27.2855C23.9829 27.179 23.7081 27.1241 23.4305 27.1241H20.331C19.4137 27.1231 18.5342 26.7582 17.8856 26.1095C17.237 25.4609 16.8721 24.5814 16.8711 23.6641C16.8711 21.9634 18.2051 20.2043 20.4375 20.2043H21.2042V18.1804C21.2042 18.001 21.2755 17.8289 21.4023 17.7021C21.5292 17.5752 21.7013 17.5039 21.8807 17.5039C22.0601 17.5039 22.2322 17.5752 22.3591 17.7021C22.486 17.8289 22.5572 18.001 22.5572 18.1804V20.2043H23.3239C23.884 20.2136 24.4365 20.3355 24.9485 20.5628C25.4605 20.7902 25.9215 21.1183 26.304 21.5276C26.3942 21.6238 26.4543 21.7443 26.4769 21.8743C26.4995 22.0042 26.4836 22.138 26.4312 22.259C26.3787 22.3801 26.2921 22.4831 26.1818 22.5556C26.0716 22.628 25.9426 22.6666 25.8107 22.6667C25.718 22.6671 25.6263 22.6483 25.5412 22.6114C25.4562 22.5746 25.3797 22.5205 25.3166 22.4527C25.0623 22.1774 24.755 21.9562 24.4132 21.8024C24.0715 21.6485 23.7022 21.5652 23.3275 21.5572L20.3397 21.5571C20.0627 21.556 19.7882 21.6096 19.5318 21.7147C19.2755 21.8198 19.0425 21.9744 18.846 22.1697C18.6495 22.365 18.4934 22.5972 18.3868 22.8528C18.2801 23.1085 18.2249 23.3827 18.2243 23.6597C18.2238 23.9368 18.2778 24.2112 18.3834 24.4673C18.4891 24.7234 18.6441 24.9562 18.8398 25.1523C19.0355 25.3484 19.2679 25.504 19.5238 25.6102C19.7797 25.7163 20.054 25.771 20.331 25.771H23.4305C24.3477 25.7723 25.2271 26.1372 25.8756 26.7858C26.5242 27.4344 26.8891 28.3138 26.8902 29.231C26.8902 30.9318 25.5562 32.6909 23.3238 32.6909H22.5571V34.7148C22.5569 34.8942 22.4856 35.0661 22.3587 35.193C22.2319 35.3198 22.0599 35.3911 21.8806 35.3913Z" fill="white"/>
</svg>
