<svg width="48" height="48" viewBox="0 0 48 48" fill="none" xmlns="http://www.w3.org/2000/svg">
<path d="M7.06486 45.9018C4.58225 45.9018 2.37569 44.4147 1.44555 42.1129C0.838608 40.6124 0.852075 38.9657 1.48403 37.4748C2.11599 35.9848 3.29044 34.8296 4.79097 34.2226C5.51912 33.9283 6.28285 33.7792 7.06101 33.7792C9.54362 33.7792 11.7502 35.2663 12.6803 37.5681L12.7044 37.6287H15.3524L15.3178 37.5065C15.0764 36.6543 14.706 35.8482 14.2164 35.1105C12.6255 32.7106 9.95531 31.2793 7.07352 31.2793C5.45756 31.2793 3.88007 31.7371 2.50939 32.6028L2.42956 32.6528L1.6841 31.5313L1.76682 31.4784C2.69792 30.8868 3.71463 30.4578 4.78905 30.2029C5.54413 30.024 6.31748 29.9326 7.08602 29.9326C9.27718 29.9326 11.4405 30.6791 13.1776 32.0353C14.9677 33.432 16.1912 35.3403 16.7164 37.5536L16.7337 37.6277H25.2713L35.9184 26.9806L32.1545 9.50423C32.1517 9.48884 32.1488 9.47345 32.1459 9.4571C32.1209 9.27915 32.1661 9.10217 32.2738 8.95789C32.3815 8.8136 32.5393 8.72126 32.7172 8.69529L33.3126 8.61161L32.7076 5.88564H29.9586L29.9355 5.95009C29.6248 6.82828 28.7908 7.4208 27.8588 7.42465H23.2418C22.0221 7.42465 21.0294 6.43199 21.0294 5.21232C21.0294 3.99266 22.0221 3 23.2418 3H27.8588C28.7899 3.00385 29.6248 3.59637 29.9345 4.47456L29.9576 4.53901H33.2453C33.5618 4.53901 33.8321 4.75447 33.9023 5.06323L34.6477 8.41923L35.7616 8.26245C35.7933 8.25764 35.8251 8.25571 35.8568 8.25571C36.1714 8.25571 36.4474 8.47887 36.5138 8.78667L41.9138 33.859L41.9782 33.8696C43.5846 34.1457 45.0312 35.0768 45.9498 36.4234C47.8274 39.1782 47.1137 42.9478 44.3589 44.8254C43.3499 45.5132 42.1744 45.8758 40.9586 45.8758C38.9541 45.8758 37.0842 44.888 35.9569 43.2345C35.0469 41.8994 34.7112 40.2911 35.0123 38.704C35.3124 37.1169 36.2137 35.7424 37.5478 34.8325L37.6017 34.7959L37.2111 32.9799L31.6111 38.58V39.0522C31.6082 40.7038 30.2625 42.0504 28.611 42.0523H12.7044L12.6803 42.1129C12.0676 43.6269 10.8489 44.8456 9.3349 45.4584C8.60675 45.7517 7.84302 45.9018 7.06486 45.9018ZM37.7902 36.3465C36.7956 37.2401 36.2262 38.5184 36.2281 39.8554C36.2329 42.4458 38.3433 44.5532 40.9336 44.5532C42.969 44.5426 44.7619 43.2403 45.3958 41.3117C45.7892 40.1161 45.692 38.8387 45.1245 37.7143C44.557 36.5908 43.5855 35.7549 42.3889 35.3625L42.2293 35.3105L43.1065 39.3725L43.1123 39.4024C43.1277 39.4687 43.1402 39.5409 43.1498 39.613C43.2248 40.1978 43.0661 40.7778 42.7044 41.2463C42.3428 41.7138 41.8205 42.0129 41.2357 42.0879C41.1414 42.0995 41.0471 42.1062 40.9529 42.1062C39.8438 42.1062 38.9021 41.2751 38.7617 40.1738L38.7607 40.168L38.7502 40.1257L37.9133 36.2378L37.7902 36.3465ZM7.04851 35.1268C5.78941 35.1316 4.60822 35.626 3.7204 36.5196C2.83355 37.4132 2.3478 38.5982 2.35261 39.8573C2.36223 42.4467 4.47644 44.5532 7.06582 44.5532H7.0841C8.752 44.5417 10.3093 43.6394 11.148 42.1966L11.2317 42.0523H7.08313C5.86347 42.0523 4.87081 41.0597 4.87081 39.84C4.87081 38.6203 5.86347 37.6277 7.08313 37.6277H11.2308L11.1471 37.4834C10.3093 36.03 8.74526 35.1268 7.06678 35.1268H7.04851ZM40.0506 39.7554C40.0699 39.8083 40.0824 39.8641 40.0881 39.9198C40.1247 40.3604 40.4989 40.7047 40.9423 40.7047C41.4194 40.7047 41.808 40.3161 41.808 39.8391C41.808 39.7813 41.8022 39.7227 41.7907 39.6659L40.0044 31.3716L38.3616 31.9189L40.0487 39.7486L40.0506 39.7554ZM7.08313 38.9743C6.60604 38.9743 6.21744 39.3629 6.21744 39.84C6.21744 40.3171 6.60604 40.7057 7.08313 40.7057H28.611C29.5103 40.7047 30.2529 39.9718 30.2644 39.0715L30.2654 38.9743H7.08313ZM30.6588 37.6277L36.8735 31.413L36.256 28.5485L27.1759 37.6287H30.6588V37.6277ZM38.072 30.5954L39.7178 30.0481L39.0233 26.8248L37.4574 27.3471L37.3891 27.4144L38.072 30.5954ZM37.0928 26.0515L38.7386 25.5032L35.3326 9.68892L33.6224 9.92842L37.0928 26.0515ZM23.2427 4.34663C22.7656 4.34663 22.377 4.73523 22.377 5.21232C22.377 5.68942 22.7656 6.07802 23.2427 6.07802H27.8597C28.3368 6.07802 28.7254 5.68942 28.7254 5.21232C28.7254 4.73523 28.3368 4.34663 27.8597 4.34663H23.2427Z" fill="white"/>
</svg>
