<svg width="48" height="48" viewBox="0 0 48 48" fill="none" xmlns="http://www.w3.org/2000/svg">
<path d="M44.2666 37.7744C43.1731 37.042 41.8868 36.6505 40.5707 36.6495C40.1253 36.6497 39.6811 36.6938 39.2444 36.7813L30.5282 38.6115L30.7497 37.5348C30.9416 36.6452 30.812 35.7163 30.384 34.9131C29.9561 34.1099 29.2574 33.4843 28.4119 33.1473L20.2357 29.9111C17.136 28.6855 13.6998 28.6112 10.55 29.7017L0.530273 33.2131V45.738L11.8457 41.9415L26.5125 47.456L26.522 47.4596L47.3144 43.1728L47.3486 43.1658L47.121 42.0314C46.9503 41.1684 46.6101 40.3477 46.1202 39.617C45.6302 38.8863 45.0002 38.26 44.2666 37.7744ZM29.2844 37.5997C29.1754 37.9205 29.0022 38.2158 28.7755 38.4675C28.5487 38.7193 28.2731 38.9223 27.9653 39.0641C27.655 39.2079 27.3171 39.2825 26.9751 39.2828C26.6839 39.2828 26.3953 39.2281 26.1243 39.1215L16.8934 35.5043L16.3833 36.8059L25.6142 40.4233C26.2626 40.679 26.9699 40.7471 27.6552 40.6199L28.3511 40.4901L28.3526 40.4971L39.5204 38.1522C39.8642 38.0837 40.2139 38.049 40.5645 38.0488C41.5984 38.0514 42.609 38.356 43.4721 38.925C44.3353 39.4941 45.0134 40.3029 45.4231 41.2521L45.771 42.0638L26.6356 46.0087L11.884 40.4623L11.8723 40.4578L1.92828 43.7943V34.2047L11.01 31.022C13.8429 30.0412 16.9335 30.1084 19.7212 31.2112L27.8997 34.4482C29.1051 34.9206 29.7263 36.3342 29.2844 37.5997Z" fill="white"/>
<path d="M25.3529 25.8705H25.3538C25.9248 25.872 26.4904 25.7602 27.0178 25.5417C27.5453 25.3232 28.0242 25.0022 28.4269 24.5974L36.206 16.8181L38.6831 19.295L38.708 19.3199L45.6731 12.3548C46.8267 11.2011 47.4748 9.6365 47.4748 8.00504C47.4748 6.37357 46.8267 4.80892 45.6731 3.65527L44.3604 2.3425C43.2067 1.18902 41.6421 0.541016 40.0107 0.541016C38.3792 0.541016 36.8146 1.18902 35.6609 2.3425L28.7207 9.28293L28.6959 9.30783L31.1976 11.8096L18.8935 24.1137L18.8516 24.1558L24.1378 25.6967C24.5326 25.8118 24.9417 25.8703 25.3529 25.8705ZM35.2208 15.8328L27.4415 23.612C27.0674 23.9864 26.5995 24.2532 26.0868 24.3846C25.5742 24.5159 25.0356 24.507 24.5276 24.3587L21.5013 23.4766L32.183 12.795L35.2208 15.8328ZM30.6664 9.30783L36.6463 3.32788C37.5386 2.4356 38.7488 1.93434 40.0107 1.93436C41.2726 1.93437 42.4828 2.43567 43.3751 3.32797L44.6879 4.64075C45.5802 5.53306 46.0814 6.74326 46.0814 8.00512C46.0813 9.26699 45.58 10.4772 44.6877 11.3694L38.7079 17.3493L30.6664 9.30783Z" fill="white"/>
</svg>
