<svg width="24" height="24" viewBox="0 0 24 24" fill="none" xmlns="http://www.w3.org/2000/svg">
<path d="M17 14.0667C16.0121 14.0667 15.1344 14.5467 14.5874 15.2857L9.8784 12.8792C9.9574 12.6108 10 12.327 10 12.0333C10 11.6356 9.92203 11.2559 9.78087 10.9082L14.7162 7.94297C15.2669 8.5893 16.0863 9 17 9C18.6542 9 20 7.6542 20 6C20 4.3458 18.6542 3 17 3C15.3458 3 14 4.3458 14 6C14 6.38233 14.072 6.7481 14.203 7.08467L9.25533 10.0573C8.70507 9.43007 7.89803 9.03333 7 9.03333C5.3458 9.03333 4 10.3791 4 12.0333C4 13.6875 5.3458 15.0333 7 15.0333C8.00407 15.0333 8.8944 14.5375 9.43923 13.7778L14.1346 16.1773C14.0471 16.4584 14 16.7571 14 17.0667C14 18.7209 15.3458 20.0667 17 20.0667C18.6542 20.0667 20 18.7209 20 17.0667C20 15.4125 18.6542 14.0667 17 14.0667ZM17 4C18.1028 4 19 4.8972 19 6C19 7.1028 18.1028 8 17 8C15.8972 8 15 7.1028 15 6C15 4.8972 15.8972 4 17 4ZM7 14.0333C5.8972 14.0333 5 13.1361 5 12.0333C5 10.9305 5.8972 10.0333 7 10.0333C8.1028 10.0333 9 10.9305 9 12.0333C9 13.1361 8.1028 14.0333 7 14.0333ZM17 19.0667C15.8972 19.0667 15 18.1695 15 17.0667C15 15.9639 15.8972 15.0667 17 15.0667C18.1028 15.0667 19 15.9639 19 17.0667C19 18.1695 18.1028 19.0667 17 19.0667Z" fill="#101010" stroke="#101010" stroke-width="0.5"/>
</svg>
